HIERARCHY
ROOT Hips
{
	OFFSET 0.00000 0.00000 0.00000
	CHANNELS 6 Xposition Yposition Zposition Zrotation Yrotation Xrotation 
	JOINT LHipJoint
	{
		OFFSET 0 0 0
		CHANNELS 3 Zrotation Yrotation Xrotation
		JOINT LeftUpLeg
		{
			OFFSET 1.52977 -1.71332 0.88991
			CHANNELS 3 Zrotation Yrotation Xrotation
			JOINT LeftLeg
			{
				OFFSET 2.23949 -6.15296 0.00000
				CHANNELS 3 Zrotation Yrotation Xrotation
				JOINT LeftFoot
				{
					OFFSET 2.68396 -7.37412 0.00000
					CHANNELS 3 Zrotation Yrotation Xrotation
					JOINT LeftToeBase
					{
						OFFSET 0.20538 -0.56428 2.52710
						CHANNELS 3 Zrotation Yrotation Xrotation
						End Site
						{
							OFFSET 0.00000 -0.00000 1.29919
						}
					}
				}
			}
		}
	}
	JOINT RHipJoint
	{
		OFFSET 0 0 0
		CHANNELS 3 Zrotation Yrotation Xrotation
		JOINT RightUpLeg
		{
			OFFSET -1.45689 -1.71333 0.88991
			CHANNELS 3 Zrotation Yrotation Xrotation
			JOINT RightLeg
			{
				OFFSET -2.36700 -6.50329 0.00000
				CHANNELS 3 Zrotation Yrotation Xrotation
				JOINT RightFoot
				{
					OFFSET -2.69814 -7.41308 0.00000
					CHANNELS 3 Zrotation Yrotation Xrotation
					JOINT RightToeBase
					{
						OFFSET -0.18734 -0.51471 2.37479
						CHANNELS 3 Zrotation Yrotation Xrotation
						End Site
						{
							OFFSET -0.00000 -0.00000 1.22113
						}
					}
				}
			}
		}
	}
	JOINT LowerBack
	{
		OFFSET 0 0 0
		CHANNELS 3 Zrotation Yrotation Xrotation
		JOINT Spine
		{
			OFFSET 0.04294 2.14638 -0.31163
			CHANNELS 3 Zrotation Yrotation Xrotation
			JOINT Spine1
			{
				OFFSET -0.00400 2.17216 0.01486
				CHANNELS 3 Zrotation Yrotation Xrotation
				JOINT Neck
				{
					OFFSET 0 0 0
					CHANNELS 3 Zrotation Yrotation Xrotation
					JOINT Neck1
					{
						OFFSET 0.03869 1.76598 0.14916
						CHANNELS 3 Zrotation Yrotation Xrotation
						JOINT Head
						{
							OFFSET -0.00760 1.75513 -0.18948
							CHANNELS 3 Zrotation Yrotation Xrotation
							End Site
							{
								OFFSET -0.00601 1.82444 -0.08310
							}
						}
					}
				}
				JOINT LeftShoulder
				{
					OFFSET 0 0 0
					CHANNELS 3 Zrotation Yrotation Xrotation
					JOINT LeftArm
					{
						OFFSET 3.73696 0.92058 0.01733
						CHANNELS 3 Zrotation Yrotation Xrotation
						JOINT LeftForeArm
						{
							OFFSET 5.22771 -0.00000 0.00000
							CHANNELS 3 Zrotation Yrotation Xrotation
							JOINT LeftHand
							{
								OFFSET 3.45251 -0.00000 0.00000
								CHANNELS 3 Zrotation Yrotation Xrotation
								JOINT LeftFingerBase
								{
									OFFSET 0 0 0
									CHANNELS 3 Zrotation Yrotation Xrotation
									JOINT LeftHandIndex1
									{
										OFFSET 0.55212 -0.00000 0.00000
										CHANNELS 3 Zrotation Yrotation Xrotation
										End Site
										{
											OFFSET 0.44513 -0.00000 0.00000
										}
									}
								}
								JOINT LThumb
								{
									OFFSET 0 0 0
									CHANNELS 3 Zrotation Yrotation Xrotation
									End Site
									{
										OFFSET 0.45193 -0.00000 0.45193
									}
								}
							}
						}
					}
				}
				JOINT RightShoulder
				{
					OFFSET 0 0 0
					CHANNELS 3 Zrotation Yrotation Xrotation
					JOINT RightArm
					{
						OFFSET -3.63819 0.83094 -0.13694
						CHANNELS 3 Zrotation Yrotation Xrotation
						JOINT RightForeArm
						{
							OFFSET -5.23980 -0.00000 -0.00000
							CHANNELS 3 Zrotation Yrotation Xrotation
							JOINT RightHand
							{
								OFFSET -3.48042 -0.00000 -0.00000
								CHANNELS 3 Zrotation Yrotation Xrotation
								JOINT RightFingerBase
								{
									OFFSET 0 0 0
									CHANNELS 3 Zrotation Yrotation Xrotation
									JOINT RightHandIndex1
									{
										OFFSET -0.61871 -0.00000 0.00000
										CHANNELS 3 Zrotation Yrotation Xrotation
										End Site
										{
											OFFSET -0.49882 -0.00000 0.00000
										}
									}
								}
								JOINT RThumb
								{
									OFFSET 0 0 0
									CHANNELS 3 Zrotation Yrotation Xrotation
									End Site
									{
										OFFSET -0.50644 -0.00000 0.50644
									}
								}
							}
						}
					}
				}
			}
		}
	}
}
MOTION
Frames: 15
Frame Time: .0083333
-37.2366 17.0228 -6.7819 0 0 0 0 0 0 -21 0 0 0 0 0 0 0 0 0 0 0 0 0 0 21 0 0 0 0 0 0 0 0 0 0 0 0 0 0 0 0 0 0 0 0 0 0 -16 0 0 21 0 0 11 0 0 0 -8 0 0 0 0 0 0 0 0 0 0 0 0 0 0 0 0 0 0 0 0 8 0 0 0 0 0 0 0 0 0 0 0 0 0 0 0 0 0
-37.2366 17.0228 -6.7819 -105.9890 -86.0551 104.7260 0.0000 0.0000 0.0000 -13.5462 5.9078 1.8884 0.7686 5.5982 15.6228 0.9143 -2.4564 -17.4091 0.0170 -0.8413 -2.3124 0.0000 0.0000 0.0000 26.0071 6.8326 -2.5705 -2.7308 -10.2460 29.7770 -2.0244 -4.1086 -28.5981 -0.1520 -2.5121 6.9231 4.6189 -0.6165 -2.1960 0.1168 -1.0106 2.0020 -2.5185 -0.4033 3.2209 0.5123 -0.5286 -6.9863 2.7079 -0.9930 6.4013 0.7451 -0.3789 3.3087 -0.0000 -0.0000 0.0000 -85.9326 3.6918 25.5943 14.7062 -23.7353 -3.1067 -0.0000 0.0000 -16.2150 17.0755 11.8256 3.6020 -7.1250 0.0000 -0.0000 -9.0795 42.1571 0.6426 -0.0000 -0.0000 0.0000 89.8207 -2.1595 19.7977 -13.9312 22.6363 -2.8016 0.0000 0.0000 3.8506 -18.2449 -4.0503 1.3339 7.1250 -0.0000 -0.0000 6.8998 -34.1815 1.8428
-37.2370 17.0219 -6.7805 -105.9300 -86.0281 104.6860 0.0000 0.0000 0.0000 -13.5292 5.8709 1.8518 0.7733 5.6149 15.6710 0.9168 -2.4214 -17.4408 0.0196 -0.9038 -2.4842 0.0000 0.0000 0.0000 26.0315 6.8650 -2.5887 -2.7251 -10.2361 29.7446 -1.9988 -4.3694 -28.5565 -0.1523 -2.5150 6.9313 4.6513 -0.6259 -2.1939 0.1209 -1.0237 1.9870 -2.5329 -0.4098 3.2027 0.5109 -0.5258 -6.9167 2.7189 -0.9881 6.3640 0.7490 -0.3771 3.2824 0.0000 0.0000 0.0000 -85.9596 3.7376 25.5317 14.7136 -23.7457 -3.1097 -0.0000 0.0000 -16.1865 17.0362 11.8747 3.6079 -7.1250 0.0000 -0.0000 -9.1243 42.2038 0.6353 0.0000 0.0000 0.0000 89.8380 -2.1744 19.8482 -13.9309 22.6358 -2.8014 0.0000 0.0000 3.6228 -18.4488 -3.8501 1.2832 7.1250 -0.0000 -0.0000 6.7126 -33.9800 1.8252
-37.2393 17.0216 -6.7804 -105.8940 -85.9919 104.6480 0.0000 0.0000 0.0000 -13.4884 5.8840 1.8819 0.7708 5.6061 15.6457 0.9179 -2.4456 -17.4459 0.0169 -0.8405 -2.3100 0.0000 0.0000 0.0000 26.0780 6.8852 -2.5752 -2.7261 -10.2379 29.7507 -1.9941 -4.4066 -28.5441 -0.1504 -2.4993 6.8876 4.6789 -0.6212 -2.1729 0.1316 -1.0179 1.9868 -2.5368 -0.4067 3.1909 0.5121 -0.5210 -6.9666 2.7198 -0.9840 6.4125 0.7496 -0.3741 3.3088 -0.0000 0.0000 0.0000 -85.9896 3.7703 25.4958 14.7274 -23.7649 -3.1152 -0.0000 0.0000 -16.1937 17.1142 11.8035 3.6040 -7.1250 0.0000 -0.0000 -9.0407 42.1384 0.6441 -0.0000 0.0000 0.0000 89.8530 -2.1584 19.7181 -13.9519 22.6660 -2.8096 0.0000 0.0000 3.8710 -18.2502 -3.9826 1.3120 7.1250 -0.0000 -0.0000 6.8884 -34.1109 1.8515
-37.2409 17.0237 -6.7805 -105.6830 -86.0065 104.4580 0.0000 0.0000 0.0000 -13.4994 5.8816 1.8691 0.7686 5.5982 15.6230 0.9156 -2.4400 -17.4249 0.0177 -0.8601 -2.3640 0.0000 0.0000 0.0000 26.0755 6.9026 -2.5608 -2.7271 -10.2395 29.7559 -2.0189 -4.2502 -28.6305 -0.1585 -2.5653 7.0709 4.6548 -0.6202 -2.1860 0.1291 -1.0163 1.9881 -2.5259 -0.4062 3.2001 0.5068 -0.5279 -6.9069 2.7413 -0.9918 6.3467 0.7568 -0.3784 3.2749 -0.0000 0.0000 0.0000 -86.0079 3.7569 25.4652 14.7176 -23.7512 -3.1113 -0.0000 0.0000 -16.1475 17.0749 11.7690 3.5849 -7.1250 0.0000 -0.0000 -9.0683 42.0990 0.6550 -0.0000 0.0000 0.0000 89.8651 -2.1540 19.7341 -13.9754 22.6996 -2.8186 0.0000 0.0000 3.7374 -18.3284 -3.9384 1.3034 7.1250 -0.0000 -0.0000 6.8199 -34.0678 1.8401
-37.2425 17.0252 -6.7802 -105.5390 -86.0061 104.3310 0.0000 0.0000 0.0000 -13.4983 5.8813 1.8811 0.7640 5.5818 15.5757 0.9133 -2.4323 -17.4034 0.0177 -0.8599 -2.3633 0.0000 0.0000 0.0000 26.0828 6.9237 -2.5615 -2.7297 -10.2440 29.7706 -2.0287 -4.2054 -28.6727 -0.1631 -2.6021 7.1730 4.6494 -0.6205 -2.1890 0.1303 -1.0165 1.9854 -2.5217 -0.4065 3.1990 0.5011 -0.5343 -6.8825 2.7565 -1.0001 6.3256 0.7623 -0.3825 3.2632 -0.0000 0.0000 0.0000 -86.0322 3.7646 25.4228 14.7185 -23.7525 -3.1117 -0.0000 0.0000 -16.1100 17.0577 11.7543 3.5767 -7.1250 0.0000 -0.0000 -9.0805 42.0822 0.6596 -0.0000 0.0000 0.0000 89.8781 -2.1489 19.7299 -13.9931 22.7249 -2.8254 0.0000 0.0000 3.6563 -18.3773 -3.8958 1.2930 7.1250 -0.0000 -0.0000 6.7757 -34.0251 1.8351
-37.2440 17.0269 -6.7800 -105.3940 -86.0091 104.2070 0.0000 0.0000 0.0000 -13.5008 5.8826 1.8945 0.7584 5.5618 15.5180 0.9102 -2.4232 -17.3748 0.0178 -0.8615 -2.3678 0.0000 0.0000 0.0000 26.0856 6.9432 -2.5657 -2.7328 -10.2495 29.7884 -2.0405 -4.1394 -28.7177 -0.1684 -2.6438 7.2887 4.6408 -0.6200 -2.1953 0.1307 -1.0158 1.9837 -2.5166 -0.4063 3.2011 0.4946 -0.5435 -6.8645 2.7725 -1.0124 6.3090 0.7680 -0.3885 3.2544 0.0000 -0.0000 0.0000 -86.0558 3.7668 25.3831 14.7178 -23.7515 -3.1114 -0.0000 0.0000 -16.0661 17.0480 11.7200 3.5643 -7.1250 0.0000 -0.0000 -9.0819 42.0461 0.6679 0.0000 -0.0000 0.0000 89.8915 -2.1400 19.7303 -14.0115 22.7512 -2.8326 0.0000 0.0000 3.5628 -18.4300 -3.8576 1.2843 7.1250 -0.0000 -0.0000 6.7288 -33.9871 1.8285
-37.2454 17.0286 -6.7796 -105.2390 -86.0134 104.0740 0.0000 0.0000 0.0000 -13.5054 5.8797 1.9014 0.7536 5.5445 15.4684 0.9074 -2.4139 -17.3487 0.0180 -0.8668 -2.3824 0.0000 0.0000 0.0000 26.0860 6.9618 -2.5718 -2.7348 -10.2528 29.7994 -2.0501 -4.0883 -28.7555 -0.1730 -2.6792 7.3869 4.6326 -0.6195 -2.2051 0.1306 -1.0154 1.9838 -2.5121 -0.4061 3.2068 0.4883 -0.5565 -6.8572 2.7884 -1.0301 6.2993 0.7733 -0.3970 3.2500 0.0000 -0.0000 0.0000 -86.0797 3.7650 25.3435 14.7183 -23.7523 -3.1116 -0.0000 0.0000 -16.0281 17.0396 11.6872 3.5526 -7.1250 0.0000 -0.0000 -9.0827 42.0115 0.6758 0.0000 -0.0000 0.0000 89.9058 -2.1252 19.7363 -14.0281 22.7749 -2.8390 0.0000 0.0000 3.4526 -18.4944 -3.8117 1.2738 7.1250 -0.0000 -0.0000 6.6716 -33.9416 1.8202
-37.2468 17.0299 -6.7792 -105.0860 -86.0151 103.9410 0.0000 0.0000 0.0000 -13.5075 5.8755 1.9041 0.7498 5.5309 15.4291 0.9051 -2.4081 -17.3272 0.0182 -0.8721 -2.3971 0.0000 0.0000 0.0000 26.0880 6.9782 -2.5787 -2.7356 -10.2542 29.8039 -2.0557 -4.0641 -28.7807 -0.1764 -2.7055 7.4599 4.6286 -0.6193 -2.2156 0.1312 -1.0156 1.9846 -2.5095 -0.4061 3.2137 0.5270 -0.5785 -6.8184 2.7580 -1.0593 6.2612 0.7549 -0.4125 3.2292 -0.0000 -0.0000 0.0000 -86.1041 3.7646 25.3020 14.7224 -23.7580 -3.1132 -0.0000 0.0000 -15.9924 17.0123 11.7283 3.5589 -7.1250 0.0000 -0.0000 -9.1152 42.0511 0.6693 -0.0000 -0.0000 0.0000 89.9212 -2.1071 19.7292 -14.0455 22.7997 -2.8457 0.0000 0.0000 3.3830 -18.5215 -3.7910 1.2689 7.1250 -0.0000 -0.0000 6.6474 -33.9209 1.8168
-37.2482 17.0309 -6.7786 -104.9130 -86.0141 103.7880 0.0000 0.0000 0.0000 -13.5069 5.8693 1.9018 0.7473 5.5220 15.4035 0.9036 -2.4055 -17.3131 0.0185 -0.8773 -2.4112 0.0000 0.0000 0.0000 26.0920 6.9912 -2.5845 -2.7351 -10.2534 29.8013 -2.0593 -4.0498 -28.7972 -0.1787 -2.7229 7.5081 4.6294 -0.6199 -2.2275 0.1326 -1.0171 1.9869 -2.5088 -0.4066 3.2227 0.5559 -0.5969 -6.7943 2.7367 -1.0842 6.2390 0.7416 -0.4253 3.2167 0.0000 -0.0000 0.0000 -86.1294 3.7654 25.2638 14.7274 -23.7649 -3.1152 -0.0000 0.0000 -15.9768 16.9878 11.7999 3.5748 -7.1250 0.0000 -0.0000 -9.1516 42.1222 0.6558 0.0000 -0.0000 0.0000 89.9367 -2.0848 19.7086 -14.0623 22.8238 -2.8522 0.0000 0.0000 3.3599 -18.5101 -3.7941 1.2691 7.1250 -0.0000 -0.0000 6.6570 -33.9237 1.8190
-37.2495 17.0314 -6.7778 -104.7280 -86.0086 103.6170 0.0000 0.0000 0.0000 -13.5015 5.8616 1.8971 0.7461 5.5176 15.3911 0.9028 -2.4066 -17.3050 0.0186 -0.8797 -2.4179 0.0000 0.0000 0.0000 26.1000 6.9982 -2.5870 -2.7335 -10.2507 29.7924 -2.0598 -4.0574 -28.8038 -0.1794 -2.7279 7.5220 4.6364 -0.6210 -2.2382 0.1350 -1.0196 1.9909 -2.5106 -0.4075 3.2326 0.6330 -0.6240 -6.7276 2.6646 -1.1195 6.1772 0.7025 -0.4449 3.1816 0.0000 -0.0000 0.0000 -86.1548 3.7667 25.2274 14.7342 -23.7746 -3.1180 -0.0000 0.0000 -15.9818 16.9623 11.9197 3.6047 -7.1250 0.0000 -0.0000 -9.1990 42.2426 0.6317 0.0000 -0.0000 0.0000 89.9515 -2.0603 19.6825 -14.0797 22.8485 -2.8590 0.0000 0.0000 3.3766 -18.4632 -3.8088 1.2705 7.1250 -0.0000 -0.0000 6.6967 -33.9374 1.8278
-37.2507 17.0317 -6.7771 -104.5300 -86.0008 103.4320 0.0000 0.0000 0.0000 -13.4932 5.8533 1.8896 0.7458 5.5165 15.3878 0.9025 -2.4113 -17.3010 0.0185 -0.8785 -2.4145 0.0000 0.0000 0.0000 26.1100 7.0022 -2.5870 -2.7313 -10.2469 29.7799 -2.0588 -4.0788 -28.8074 -0.1797 -2.7302 7.5285 4.6463 -0.6223 -2.2470 0.1385 -1.0225 1.9942 -2.5128 -0.4085 3.2407 0.7288 -0.6513 -6.6415 2.5718 -1.1544 6.1006 0.6535 -0.4649 3.1373 -0.0000 -0.0000 0.0000 -86.1809 3.7694 25.1919 14.7410 -23.7841 -3.1208 -0.0000 0.0000 -15.9986 16.9627 11.9805 3.6229 -7.1250 0.0000 -0.0000 -9.2114 42.3049 0.6182 -0.0000 -0.0000 0.0000 89.9656 -2.0396 19.6629 -14.0970 22.8731 -2.8657 0.0000 0.0000 3.3904 -18.4164 -3.8212 1.2712 7.1250 -0.0000 -0.0000 6.7361 -33.9485 1.8368
-37.2519 17.0321 -6.7761 -104.3140 -85.9922 103.2270 0.0000 0.0000 0.0000 -13.4841 5.8455 1.8810 0.7460 5.5172 15.3897 0.9024 -2.4169 -17.2990 0.0185 -0.8780 -2.4132 0.0000 0.0000 0.0000 26.1196 7.0001 -2.5859 -2.7288 -10.2425 29.7656 -2.0578 -4.0940 -28.8086 -0.1798 -2.7312 7.5313 4.6587 -0.6231 -2.2547 0.1417 -1.0248 1.9984 -2.5167 -0.4092 3.2491 0.8325 -0.6813 -6.5392 2.4693 -1.1922 6.0074 0.6000 -0.4867 3.0842 0.0000 -0.0000 0.0000 -86.2053 3.7696 25.1560 14.7490 -23.7952 -3.1240 -0.0000 0.0000 -16.0085 16.9765 11.9809 3.6261 -7.1250 0.0000 -0.0000 -9.1992 42.3067 0.6170 0.0000 -0.0000 0.0000 89.9793 -2.0201 19.6549 -14.1148 22.8986 -2.8726 0.0000 0.0000 3.3913 -18.3774 -3.8288 1.2708 7.1250 -0.0000 -0.0000 6.7687 -33.9550 1.8447
-37.2530 17.0324 -6.7752 -104.0880 -85.9846 103.0100 0.0000 0.0000 0.0000 -13.4755 5.8368 1.8739 0.7461 5.5174 15.3903 0.9022 -2.4222 -17.2964 0.0184 -0.8751 -2.4053 0.0000 0.0000 0.0000 26.1283 6.9976 -2.5851 -2.7264 -10.2383 29.7520 -2.0564 -4.1190 -28.8111 -0.1794 -2.7286 7.5240 4.6697 -0.6228 -2.2596 0.1452 -1.0254 2.0030 -2.5194 -0.4090 3.2565 0.9280 -0.7110 -6.4484 2.3736 -1.2296 5.9207 0.5503 -0.5081 3.0357 0.0000 0.0000 0.0000 -86.2292 3.7662 25.1238 14.7573 -23.8069 -3.1273 -0.0000 0.0000 -16.0262 17.0223 11.8879 3.6087 -7.1250 0.0000 -0.0000 -9.1393 42.2158 0.6336 0.0000 0.0000 0.0000 89.9928 -2.0046 19.6629 -14.1342 22.9262 -2.8802 0.0000 0.0000 3.3496 -18.3744 -3.8176 1.2669 7.1250 -0.0000 -0.0000 6.7700 -33.9432 1.8471
-37.2539 17.0326 -6.7743 -103.8540 -85.9776 102.7870 0.0000 0.0000 0.0000 -13.4673 5.8294 1.8666 0.7460 5.5172 15.3899 0.9020 -2.4286 -17.2927 0.0183 -0.8743 -2.4029 0.0000 0.0000 0.0000 26.1347 6.9893 -2.5872 -2.7240 -10.2342 29.7386 -2.0554 -4.1312 -28.8103 -0.1796 -2.7298 7.5275 4.6814 -0.6207 -2.2620 0.1485 -1.0235 2.0083 -2.5225 -0.4076 3.2634 0.9524 -0.7271 -6.4288 2.3514 -1.2508 5.8993 0.5379 -0.5192 3.0244 0.0000 0.0000 0.0000 -86.2514 3.7570 25.0964 14.7576 -23.8073 -3.1274 -0.0000 0.0000 -16.0328 17.0998 11.6629 3.5586 -7.1250 0.0000 -0.0000 -9.0246 41.9925 0.6756 0.0000 0.0000 0.0000 90.0079 -1.9896 19.6766 -14.1545 22.9552 -2.8881 0.0000 0.0000 3.2833 -18.3926 -3.7971 1.2615 7.1250 -0.0000 -0.0000 6.7531 -33.9225 1.8458
